<?xml version="1.0" encoding="UTF-8"?>
<svg id="Layer_2" data-name="Layer 2" xmlns="http://www.w3.org/2000/svg" xmlns:xlink="http://www.w3.org/1999/xlink" viewBox="0 0 571.03 557.88">
  <defs>
    <style>
      .cls-1 {
        fill: url(#linear-gradient-2);
      }

      .cls-2 {
        fill: url(#linear-gradient-3);
      }

      .cls-3 {
        fill: url(#linear-gradient);
      }
    </style>
    <linearGradient id="linear-gradient" x1="148.04" y1="-18.14" x2="332.08" y2="343.62" gradientUnits="userSpaceOnUse">
      <stop offset=".02" stop-color="#f15f22"/>
      <stop offset=".56" stop-color="#f15639"/>
      <stop offset="1" stop-color="#ee3424"/>
    </linearGradient>
    <linearGradient id="linear-gradient-2" x1="236.78" y1="413.02" x2="575.65" y2="309.29" gradientUnits="userSpaceOnUse">
      <stop offset=".46" stop-color="#ee3424"/>
      <stop offset="1" stop-color="#cb2527"/>
    </linearGradient>
    <linearGradient id="linear-gradient-3" x1="17.24" y1="150.01" x2="448.31" y2="483.04" gradientUnits="userSpaceOnUse">
      <stop offset="0" stop-color="#f47d42"/>
      <stop offset=".04" stop-color="#f37539"/>
      <stop offset=".14" stop-color="#f16428"/>
      <stop offset=".21" stop-color="#f15f22"/>
      <stop offset=".27" stop-color="#f15c27"/>
      <stop offset=".49" stop-color="#f15639"/>
      <stop offset=".63" stop-color="#ef462f"/>
      <stop offset=".82" stop-color="#ee3826"/>
      <stop offset=".98" stop-color="#ee3424"/>
    </linearGradient>
  </defs>
  <g id="Layer_1-2" data-name="Layer 1">
    <g>
      <path class="cls-3" d="M495.09,407.14c-88.39,74.95-278.8,143.89-341.83-17.61C94.42,238.78,201.2,75.58,369.33,17.16c-90.05,183.26-50.59,394.43,125.76,389.98Z"/>
      <path class="cls-1" d="M216.65,293.24c-1.41,127.97,162.42,224.26,253.13,171.61,71.72-86.3,57.65-189.89,101.24-248.96-22.03-4.22-49.69,5.63-61.88,19.69-71.72-4.22-74.53,52.03-120.94,92.81-58.34,51.27-131.53,27.55-171.56-35.16Z"/>
      <path class="cls-2" d="M469.78,464.85c-106.14,126.46-327.61,128.56-427.28-21.88C-58.28,290.84,30.64,98.44,199.24,0c-49.05,261.56,79.7,506.25,270.54,464.85Z"/>
    </g>
  </g>
</svg>