<?xml version="1.0" encoding="UTF-8"?>
<svg id="Layer_2" data-name="Layer 2" xmlns="http://www.w3.org/2000/svg" xmlns:xlink="http://www.w3.org/1999/xlink" viewBox="0 0 508.43 89.38">
  <defs>
    <style>
      .cls-1 {
        fill: url(#linear-gradient-2);
      }

      .cls-2 {
        letter-spacing: -.02em;
      }

      .cls-3 {
        fill: url(#linear-gradient-3);
      }

      .cls-4 {
        letter-spacing: 0em;
      }

      .cls-5 {
        letter-spacing: 0em;
      }

      .cls-6 {
        fill: #ff5e0e;
        font-family: FunnelDisplay-Light, 'Funnel Display';
        font-weight: 300;
      }

      .cls-6, .cls-7 {
        font-size: 78.93px;
      }

      .cls-7 {
        fill: #fff;
        font-family: FunnelDisplay-Bold, 'Funnel Display';
        font-weight: 700;
      }

      .cls-8 {
        fill: url(#linear-gradient);
      }
    </style>
    <linearGradient id="linear-gradient" x1="19.18" y1="-.81" x2="43.04" y2="46.07" gradientUnits="userSpaceOnUse">
      <stop offset=".02" stop-color="#f05f22"/>
      <stop offset=".56" stop-color="#f05639"/>
      <stop offset="1" stop-color="#ed3324"/>
    </linearGradient>
    <linearGradient id="linear-gradient-2" x1="30.68" y1="55.07" x2="74.6" y2="41.63" gradientUnits="userSpaceOnUse">
      <stop offset=".46" stop-color="#ed3324"/>
      <stop offset="1" stop-color="#cb2527"/>
    </linearGradient>
    <linearGradient id="linear-gradient-3" x1="2.23" y1="20.98" x2="58.1" y2="64.14" gradientUnits="userSpaceOnUse">
      <stop offset="0" stop-color="#f37d42"/>
      <stop offset=".04" stop-color="#f27539"/>
      <stop offset=".14" stop-color="#f06428"/>
      <stop offset=".21" stop-color="#f05f22"/>
      <stop offset=".27" stop-color="#f05c27"/>
      <stop offset=".49" stop-color="#f05639"/>
      <stop offset=".64" stop-color="#ee452f"/>
      <stop offset=".82" stop-color="#ed3726"/>
      <stop offset=".98" stop-color="#ed3324"/>
    </linearGradient>
  </defs>
  <g id="Layer_1-2" data-name="Layer 1">
    <g>
      <path class="cls-8" d="M64.16,54.31c-11.45,9.71-36.13,18.65-44.3-2.28C12.24,32.49,26.07,11.34,47.86,3.77c-11.67,23.75-6.56,51.11,16.3,50.54Z"/>
      <path class="cls-1" d="M28.08,39.54c-.18,16.58,21.05,29.06,32.8,22.24,9.29-11.18,7.47-24.61,13.12-32.26-2.86-.55-6.44.73-8.02,2.55-9.29-.55-9.66,6.74-15.67,12.03-7.56,6.64-17.04,3.57-22.23-4.56Z"/>
      <path class="cls-3" d="M60.88,61.78c-13.75,16.39-42.46,16.66-55.37-2.84C-7.55,39.23,3.97,14.3,25.82,1.54c-6.36,33.9,10.33,65.61,35.06,60.24Z"/>
    </g>
    <text class="cls-7" transform="translate(96.96 66.1)"><tspan x="0" y="0">Fl</tspan><tspan class="cls-4" x="65.11" y="0">a</tspan><tspan class="cls-5" x="112.33" y="0">i</tspan><tspan class="cls-2" x="132.33" y="0">r</tspan><tspan x="164.16" y="0">e</tspan></text>
    <text class="cls-6" transform="translate(322.96 67.1)"><tspan x="0" y="0">Docs</tspan></text>
  </g>
</svg>