<?xml version="1.0" encoding="UTF-8"?>
<svg id="Layer_2" data-name="Layer 2" xmlns="http://www.w3.org/2000/svg" xmlns:xlink="http://www.w3.org/1999/xlink" viewBox="0 0 508.43 89.38">
  <defs>
    <linearGradient id="linear-gradient" x1="19.18" y1="-.81" x2="43.04" y2="46.07" gradientUnits="userSpaceOnUse">
      <stop offset=".02" stop-color="#f05f22"/>
      <stop offset=".56" stop-color="#f05639"/>
      <stop offset="1" stop-color="#ed3324"/>
    </linearGradient>
    <linearGradient id="linear-gradient-2" x1="30.68" y1="55.07" x2="74.6" y2="41.63" gradientUnits="userSpaceOnUse">
      <stop offset=".46" stop-color="#ed3324"/>
      <stop offset="1" stop-color="#cb2527"/>
    </linearGradient>
    <linearGradient id="linear-gradient-3" x1="2.23" y1="20.98" x2="58.1" y2="64.14" gradientUnits="userSpaceOnUse">
      <stop offset="0" stop-color="#f37d42"/>
      <stop offset=".04" stop-color="#f27539"/>
      <stop offset=".14" stop-color="#f06428"/>
      <stop offset=".21" stop-color="#f05f22"/>
      <stop offset=".27" stop-color="#f05c27"/>
      <stop offset=".49" stop-color="#f05639"/>
      <stop offset=".64" stop-color="#ee452f"/>
      <stop offset=".82" stop-color="#ed3726"/>
      <stop offset=".98" stop-color="#ed3324"/>
    </linearGradient>
  </defs>
  <g id="Layer_1-2" data-name="Layer 1">
    <g>
      <path d="M64.16,54.31c-11.45,9.71-36.13,18.65-44.3-2.28C12.24,32.49,26.07,11.34,47.86,3.77c-11.67,23.75-6.56,51.11,16.3,50.54Z" style="fill: url(#linear-gradient);"/>
      <path d="M28.08,39.54c-.18,16.58,21.05,29.06,32.8,22.24,9.29-11.18,7.47-24.61,13.12-32.26-2.86-.55-6.44.73-8.02,2.55-9.29-.55-9.66,6.74-15.67,12.03-7.56,6.64-17.04,3.57-22.23-4.56Z" style="fill: url(#linear-gradient-2);"/>
      <path d="M60.88,61.78c-13.75,16.39-42.46,16.66-55.37-2.84C-7.55,39.23,3.97,14.3,25.82,1.54c-6.36,33.9,10.33,65.61,35.06,60.24Z" style="fill: url(#linear-gradient-3);"/>
    </g>
    <g>
      <path d="M113.66,66.1h-11.12V12.82h38.21v9.73h-27.1v11.84h24.86v9.73h-24.86v21.97Z"/>
      <path d="M146.62,66.1V10.85h10.92v55.25h-10.92Z"/>
      <path d="M179.17,66.82c-4.65,0-8.29-1.13-10.92-3.39-2.63-2.26-3.95-5.23-3.95-8.91,0-3.9,1.36-6.91,4.08-9.01,2.72-2.1,6.62-3.16,11.71-3.16h11.31v-1.51c0-4.25-2.54-6.38-7.63-6.38-4.43,0-7.1,1.54-8.02,4.6h-10.85c.88-4.34,2.92-7.63,6.12-9.87,3.2-2.24,7.45-3.35,12.76-3.35,5.88,0,10.36,1.32,13.45,3.95s4.64,6.47,4.64,11.51v14.01h5.13v10.79h-11.05v-6.45h-2.76c-1.36,2.28-3.18,4.04-5.46,5.29-2.28,1.25-5.13,1.88-8.55,1.88ZM180.82,58.54c2.06,0,3.88-.37,5.46-1.12,1.58-.75,2.83-1.74,3.75-2.99.92-1.25,1.38-2.66,1.38-4.24v-.59h-10.79c-3.95,0-5.92,1.47-5.92,4.41,0,1.45.55,2.56,1.64,3.35,1.1.79,2.59,1.18,4.47,1.18Z"/>
      <path d="M219.29,22.76c-1.67,0-3.08-.58-4.24-1.74-1.16-1.16-1.74-2.58-1.74-4.24s.58-3.08,1.74-4.24c1.16-1.16,2.58-1.74,4.24-1.74s3.08.58,4.24,1.74c1.16,1.16,1.74,2.58,1.74,4.24s-.58,3.08-1.74,4.24c-1.16,1.16-2.58,1.74-4.24,1.74ZM213.83,66.1V26.64h10.92v39.46h-10.92Z"/>
      <path d="M237.05,66.1v-28.68h-5.39v-10.79h11.05v7.76h2.76c1.05-2.76,2.72-4.82,5-6.18,2.28-1.36,4.84-2.04,7.7-2.04h3.35v9.47h-3.81c-3.42,0-5.93.96-7.53,2.89-1.6,1.93-2.4,4.47-2.4,7.63v19.93h-10.72Z"/>
      <path d="M284.27,66.89c-4.25,0-7.96-.84-11.12-2.53-3.16-1.69-5.59-4.08-7.3-7.17-1.71-3.09-2.56-6.74-2.56-10.95s.83-7.84,2.5-10.88c1.67-3.05,4.04-5.39,7.14-7.04,3.09-1.64,6.74-2.47,10.95-2.47s7.66.79,10.62,2.37c2.96,1.58,5.23,3.84,6.81,6.77,1.58,2.94,2.37,6.45,2.37,10.52v3.68h-29.93c.44,2.94,1.56,5.17,3.35,6.71,1.8,1.54,4.17,2.3,7.1,2.3,2.32,0,4.17-.39,5.52-1.18,1.36-.79,2.32-2,2.89-3.62h10.92c-.88,4.21-3,7.51-6.38,9.9-3.38,2.39-7.67,3.58-12.89,3.58ZM274.01,41.96h19.21c-.35-2.5-1.32-4.37-2.89-5.62s-3.71-1.87-6.38-1.87-4.86.64-6.54,1.91c-1.69,1.27-2.82,3.13-3.39,5.59Z"/>
    </g>
    <g>
      <path d="M329.8,67.1V13.82h18.68c5.79,0,10.77,1.06,14.96,3.19,4.19,2.13,7.41,5.19,9.67,9.17,2.26,3.99,3.39,8.75,3.39,14.27s-1.14,10.22-3.42,14.21c-2.28,3.99-5.51,7.06-9.7,9.21-4.19,2.15-9.15,3.22-14.9,3.22h-18.68ZM336.11,61.71h12.37c6.75,0,12.02-1.85,15.82-5.56,3.79-3.7,5.69-8.93,5.69-15.69s-1.89-12.04-5.66-15.72c-3.77-3.68-9.05-5.53-15.85-5.53h-12.37v42.49Z" style="fill: #ff5e0e;"/>
      <path d="M403.53,67.89c-4.03,0-7.54-.84-10.52-2.53-2.98-1.69-5.29-4.07-6.94-7.14-1.64-3.07-2.47-6.69-2.47-10.85s.81-7.78,2.43-10.85c1.62-3.07,3.94-5.45,6.94-7.14,3-1.69,6.52-2.53,10.56-2.53s7.66.83,10.62,2.5c2.96,1.67,5.25,4.04,6.87,7.1,1.62,3.07,2.43,6.71,2.43,10.92s-.81,7.79-2.43,10.88c-1.62,3.09-3.92,5.47-6.91,7.14-2.98,1.67-6.51,2.5-10.59,2.5ZM403.53,62.5c4.34,0,7.72-1.33,10.13-3.98,2.41-2.65,3.62-6.37,3.62-11.15s-1.21-8.55-3.62-11.18c-2.41-2.63-5.79-3.95-10.13-3.95s-7.66,1.33-10.1,3.98c-2.43,2.65-3.65,6.37-3.65,11.15s1.22,8.5,3.65,11.15c2.43,2.65,5.8,3.98,10.1,3.98Z" style="fill: #ff5e0e;"/>
      <path d="M449.9,67.89c-3.99,0-7.45-.84-10.39-2.53-2.94-1.69-5.21-4.07-6.81-7.14-1.6-3.07-2.4-6.69-2.4-10.85s.79-7.78,2.37-10.85c1.58-3.07,3.84-5.45,6.77-7.14,2.94-1.69,6.42-2.53,10.46-2.53,4.69,0,8.62,1.15,11.77,3.45,3.16,2.3,5.28,5.67,6.38,10.1h-6.31c-.79-2.81-2.17-4.87-4.14-6.18-1.97-1.32-4.54-1.97-7.7-1.97-4.25,0-7.55,1.33-9.9,3.98-2.35,2.65-3.52,6.37-3.52,11.15s1.17,8.44,3.52,11.12c2.35,2.67,5.65,4.01,9.9,4.01,6.58,0,10.61-2.94,12.1-8.81h6.31c-1.05,4.65-3.18,8.18-6.38,10.59-3.2,2.41-7.21,3.62-12.04,3.62Z" style="fill: #ff5e0e;"/>
      <path d="M489.95,67.89c-5.35,0-9.58-1.11-12.69-3.32-3.11-2.21-4.82-5.32-5.13-9.31h6.18c.31,2.54,1.42,4.43,3.35,5.66,1.93,1.23,4.76,1.84,8.48,1.84,6.71,0,10.06-2.15,10.06-6.45,0-1.75-.52-3.1-1.55-4.04-1.03-.94-2.77-1.63-5.23-2.07l-8.62-1.58c-7.15-1.32-10.72-4.74-10.72-10.26,0-3.55,1.34-6.36,4.01-8.42,2.67-2.06,6.34-3.09,10.98-3.09s8.6,1.05,11.48,3.16c2.87,2.1,4.53,5.04,4.97,8.81h-6.05c-.48-2.32-1.58-4.04-3.29-5.16-1.71-1.12-4.1-1.68-7.17-1.68s-5.2.52-6.77,1.55c-1.58,1.03-2.37,2.53-2.37,4.5,0,1.49.52,2.66,1.55,3.52,1.03.86,2.71,1.5,5.03,1.94l8.55,1.58c3.77.7,6.53,1.93,8.29,3.68,1.75,1.75,2.63,4.12,2.63,7.1,0,3.81-1.38,6.77-4.14,8.88-2.76,2.11-6.71,3.16-11.84,3.16Z" style="fill: #ff5e0e;"/>
    </g>
  </g>
</svg>